<svg xmlns="http://www.w3.org/2000/svg" viewBox="0 0 64 64" width="64" height="64">
<rect width="64" height="64" rx="14" fill="#F3ECE3"/>
<path d="M33.71 52.61L32.18 50.83L30.73 49.03L29.37 47.23L28.07 45.42L26.86 43.60L25.72 41.77L24.66 39.93L23.68 38.08L22.77 36.21L21.94 34.34L21.18 32.44L20.49 30.54L19.88 28.62L19.34 26.69L18.88 24.73L18.47 22.76L18.13 20.78L17.76 18.77L17.76 18.77L17.58 20.81L17.57 22.86L17.68 24.91L17.88 26.96L18.18 29.02L18.57 31.07L19.05 33.12L19.63 35.17L20.29 37.21L21.05 39.26L21.89 41.29L22.83 43.33L23.85 45.35L24.97 47.37L26.17 49.39L27.46 51.40L28.83 53.40L30.29 55.39Z" fill="#1C1714"/><path d="M34.10 53.35L33.36 51.12L32.69 48.92L32.09 46.74L31.57 44.58L31.13 42.43L30.76 40.31L30.47 38.21L30.25 36.12L30.11 34.05L30.04 32.00L30.04 29.96L30.12 27.94L30.27 25.93L30.50 23.93L30.79 21.95L31.16 19.97L31.58 18.00L32.00 16.00L32.00 16.00L31.06 17.83L30.29 19.72L29.62 21.66L29.04 23.64L28.54 25.66L28.14 27.71L27.82 29.79L27.58 31.90L27.43 34.05L27.37 36.23L27.39 38.43L27.50 40.67L27.69 42.93L27.96 45.22L28.32 47.54L28.76 49.88L29.29 52.25L29.90 54.65Z" fill="#1C1714"/><path d="M34.19 54.19L34.33 51.84L34.54 49.55L34.81 47.30L35.14 45.10L35.53 42.95L35.98 40.84L36.50 38.78L37.08 36.77L37.72 34.79L38.42 32.86L39.19 30.98L40.02 29.13L40.91 27.33L41.87 25.56L42.89 23.83L43.97 22.13L45.10 20.46L46.24 18.77L46.24 18.77L44.68 20.11L43.25 21.58L41.90 23.12L40.62 24.74L39.41 26.43L38.27 28.17L37.19 29.99L36.18 31.86L35.24 33.79L34.37 35.79L33.56 37.84L32.82 39.95L32.15 42.12L31.54 44.35L31.01 46.63L30.54 48.97L30.14 51.37L29.81 53.81Z" fill="#1C1714"/>
<path d="M14 55 Q32 50 50 55" fill="none" stroke="#1C1714" stroke-opacity=".35" stroke-width="2" stroke-linecap="round"/>
</svg>